<svg xmlns="http://www.w3.org/2000/svg" width="512" height="512" viewBox="0 0 512 512" fill="none">
  <rect width="512" height="512" rx="96" fill="#000000"/>
  <ellipse cx="256" cy="328" rx="142" ry="30" stroke="#D8FF32" stroke-width="18" opacity="0.78"/>
  <ellipse cx="256" cy="328" rx="86" ry="18" stroke="#D8FF32" stroke-width="10" opacity="0.42"/>
  <path d="M256 80C305 142 344 202 344 253C344 303 305 343 256 343C207 343 168 303 168 253C168 202 207 142 256 80Z" fill="#D8FF32"/>
  <path d="M232 143C199 194 187 229 194 262C203 304 236 323 269 318C222 291 228 221 280 122C270 108 262 94 256 80C248 98 240 119 232 143Z" fill="#F8FFD1" opacity="0.72"/>
  <circle cx="296" cy="210" r="22" fill="#FFFFFF" opacity="0.76"/>
</svg>
